<svg width="194" height="40" viewBox="0 0 194 40" fill="none" xmlns="http://www.w3.org/2000/svg">
<path d="M9.54198 20.1799L5.17401 24.5442L0.809814 20.1799L5.17401 15.8157L9.54198 20.1799ZM20.1316 9.58264L27.6104 17.0653L31.9746 12.701L20.1316 0.85791L8.2886 12.701L12.6528 17.0653L20.1316 9.58264ZM35.0929 15.8157L30.7287 20.1799L35.0929 24.5442L39.4533 20.1799L35.0929 15.8157ZM20.1316 30.7772L12.6528 23.2983L8.2886 27.6588L20.1316 39.5019L31.9746 27.6588L27.6104 23.2983L20.1316 30.7772ZM20.1316 24.5442L24.4958 20.1799L20.1316 15.8157L15.7674 20.1799L20.1316 24.5442ZM66.1897 24.9632V24.9028C66.1897 22.0562 64.6796 20.633 62.2219 19.6967C63.732 18.8472 65.0081 17.5146 65.0081 15.1248V15.0644C65.0081 11.7346 62.3427 9.58264 58.0125 9.58264H48.1817V30.7772H58.2617C63.0449 30.7772 66.1973 28.8405 66.1973 24.9632H66.1897ZM60.3758 15.9025C60.3758 17.4768 59.0734 18.145 57.0158 18.145H52.7234V13.6713H57.3254C59.2923 13.6713 60.3834 14.4566 60.3834 15.8496L60.3758 15.9025ZM61.5575 24.3818C61.5575 25.9561 60.3154 26.681 58.2541 26.681H52.7234V22.026H58.1107C60.5042 22.026 61.565 22.9057 61.565 24.329L61.5575 24.3818ZM75.9865 30.7772V9.58264H71.309V30.7772H75.9865ZM101.05 30.7772V9.58264H96.4333V22.6339L86.5044 9.58264H82.2044V30.7772H86.8064V17.3031L97.0675 30.7772H101.05ZM126.877 30.7772L117.779 9.43163H113.479L104.399 30.7772H109.152L111.096 26.0241H120.059L121.996 30.7772H126.877ZM118.402 21.9052H112.754L115.57 15.0342L118.402 21.9052ZM149.102 30.7772V9.58264H144.485V22.6339L134.552 9.58264H130.256V30.7772H134.854V17.3031L145.119 30.7772H149.102ZM173.169 27.3568L170.206 24.3592C168.541 25.8693 167.057 26.8396 164.633 26.8396C161.002 26.8396 158.487 23.8193 158.487 20.1799V20.1195C158.487 16.4877 161.062 13.5203 164.633 13.5203C166.751 13.5203 168.409 14.4264 170.055 15.91L173.011 12.4896C171.044 10.5529 168.654 9.22021 164.656 9.22021C158.147 9.22021 153.606 14.1545 153.606 20.1686V20.229C153.606 26.3148 158.238 31.1283 164.475 31.1283C168.556 31.1396 170.976 29.6861 173.154 27.3568H173.169ZM193.065 30.7772V26.6244H181.543V22.1657H191.536V18.0129H181.543V13.7317H192.899V9.57886H176.91V30.7734L193.065 30.7772Z" fill="white"/>
</svg>
