<svg width="193" height="39" viewBox="0 0 193 39" fill="none" xmlns="http://www.w3.org/2000/svg">
<path d="M22.3758 8.05033L11.2202 15.171L22.3758 22.2916L11.2202 29.4123L0.0646973 22.2323L11.2202 15.1116L0.0646973 8.05033L11.2202 0.929688L22.3758 8.05033ZM11.1609 31.6671L22.3164 24.5465L33.472 31.6671L22.3164 38.7878L11.1609 31.6671ZM22.3758 22.2323L33.5313 15.1116L22.3758 8.05033L33.472 0.929688L44.6275 8.05033L33.472 15.171L44.6275 22.2916L33.472 29.4123L22.3758 22.2323Z" fill="white"/>
<path d="M53.3479 8.05008H62.3673C68.1231 8.05008 72.8701 11.3731 72.8701 18.9684V20.5706C72.8701 28.2253 68.4197 31.6669 62.5453 31.6669H53.3479V8.05008ZM58.3916 12.3225V27.3352H62.2486C65.5122 27.3352 67.7077 25.199 67.7077 20.4519V19.2058C67.7077 14.4587 65.3935 12.3225 62.0706 12.3225H58.3916ZM75.5403 12.5598H79.5753L80.228 17.0102C80.9994 13.984 82.9575 12.3818 86.5178 12.3818H87.7639V17.4849H85.6871C81.5928 17.4849 80.584 18.9091 80.584 22.9441V31.7262H75.5996V12.5598H75.5403ZM88.7727 22.5287V21.9947C88.7727 15.5861 92.867 12.0851 98.4448 12.0851C104.141 12.0851 108.117 15.5861 108.117 21.9947V22.5287C108.117 28.8186 104.26 32.201 98.4448 32.201C92.2736 32.1416 88.7727 28.8186 88.7727 22.5287V22.5287ZM103.014 22.4694V21.9947C103.014 18.4344 101.234 16.2982 98.3854 16.2982C95.5965 16.2982 93.757 18.2563 93.757 21.9947V22.4694C93.757 25.911 95.5372 27.8692 98.3854 27.8692C101.234 27.8099 103.014 25.911 103.014 22.4694ZM110.728 12.5598H114.881L115.356 16.1795C116.365 13.7466 118.501 12.0851 121.646 12.0851C126.512 12.0851 129.716 15.5861 129.716 22.054V22.5881C129.716 28.878 126.156 32.201 121.646 32.201C118.62 32.201 116.543 30.8362 115.534 28.6406V38.3128H110.668L110.728 12.5598ZM124.672 22.4694V22.054C124.672 18.2563 122.714 16.3575 120.103 16.3575C117.314 16.3575 115.475 18.4937 115.475 22.054V22.4101C115.475 25.7924 117.255 27.9286 120.044 27.9286C122.892 27.8692 124.672 26.0297 124.672 22.4694ZM137.074 28.1659L136.658 31.6669H132.386V6.15125H137.252V15.9421C138.32 13.4499 140.456 12.0851 143.482 12.0851C148.051 12.1445 151.434 15.2894 151.434 21.6387V22.232C151.434 28.5813 148.229 32.201 143.364 32.201C140.159 32.1416 138.083 30.6581 137.074 28.1659V28.1659ZM146.33 22.232V21.7573C146.33 18.2563 144.432 16.2982 141.761 16.2982C139.032 16.2982 137.133 18.4937 137.133 21.8167V22.232C137.133 25.7924 138.973 27.8692 141.702 27.8692C144.61 27.8692 146.33 26.0297 146.33 22.232V22.232ZM153.57 22.5287V21.9947C153.57 15.5861 157.664 12.0851 163.242 12.0851C168.938 12.0851 172.914 15.5861 172.914 21.9947V22.5287C172.914 28.8186 168.998 32.201 163.242 32.201C157.071 32.1416 153.57 28.8186 153.57 22.5287V22.5287ZM167.87 22.4694V21.9947C167.87 18.4344 166.09 16.2982 163.242 16.2982C160.453 16.2982 158.613 18.2563 158.613 21.9947V22.4694C158.613 25.911 160.394 27.8692 163.242 27.8692C166.09 27.8099 167.87 25.911 167.87 22.4694ZM179.441 21.7573L172.736 12.5598H178.492L182.349 18.3157L186.265 12.5598H191.961L185.138 21.698L192.317 31.6669H186.68L182.289 25.3177L178.017 31.6669H172.142L179.441 21.7573Z" fill="white"/>
</svg>
