<svg width="193" height="61" viewBox="0 0 193 61" fill="none" xmlns="http://www.w3.org/2000/svg">
<path d="M101.88 15.933C101.88 18.0951 100.138 19.8369 97.9762 19.8369C95.814 19.8369 94.0723 18.0951 94.0723 15.933C94.0723 13.7708 95.754 12.0291 97.9762 12.0291C100.198 12.0891 101.88 13.8309 101.88 15.933ZM85.7841 23.8009V24.7618C85.7841 24.7618 83.9223 22.3594 79.9584 22.3594C73.4119 22.3594 68.3069 27.3444 68.3069 34.2513C68.3069 41.0981 73.3519 46.1432 79.9584 46.1432C83.9824 46.1432 85.7841 43.6807 85.7841 43.6807V44.7018C85.7841 45.1822 86.1445 45.5426 86.625 45.5426H91.4898V22.96H86.625C86.1445 22.96 85.7841 23.3804 85.7841 23.8009V23.8009ZM85.7841 38.2753C84.8832 39.5966 83.0815 40.7378 80.9193 40.7378C77.0755 40.7378 74.1326 38.3354 74.1326 34.2513C74.1326 30.1672 77.0755 27.7648 80.9193 27.7648C83.0214 27.7648 84.9433 28.966 85.7841 30.2273V38.2753ZM95.0933 22.96H100.859V45.5426H95.0933V22.96ZM181.218 22.3594C177.255 22.3594 175.393 24.7618 175.393 24.7618V12.0891H169.627V45.5426H174.492C174.972 45.5426 175.333 45.1222 175.333 44.7018V43.6807C175.333 43.6807 177.194 46.1432 181.158 46.1432C187.705 46.1432 192.81 41.0981 192.81 34.2513C192.81 27.4045 187.705 22.3594 181.218 22.3594V22.3594ZM180.257 40.6777C178.035 40.6777 176.294 39.5366 175.393 38.2153V30.1672C176.294 28.966 178.215 27.7048 180.257 27.7048C184.101 27.7048 187.044 30.1072 187.044 34.1912C187.044 38.2753 184.101 40.6777 180.257 40.6777V40.6777ZM166.624 32.1492V45.6027H160.858V32.8099C160.858 29.0861 159.657 27.5846 156.414 27.5846C154.672 27.5846 152.87 28.4855 151.729 29.8069V45.5426H145.964V22.96H150.528C151.009 22.96 151.369 23.3804 151.369 23.8009V24.7618C153.051 23.0201 155.273 22.3594 157.495 22.3594C160.017 22.3594 162.12 23.0801 163.801 24.5216C165.843 26.2033 166.624 28.3654 166.624 32.1492V32.1492ZM131.97 22.3594C128.006 22.3594 126.144 24.7618 126.144 24.7618V12.0891H120.378V45.5426H125.243C125.724 45.5426 126.084 45.1222 126.084 44.7018V43.6807C126.084 43.6807 127.946 46.1432 131.91 46.1432C138.456 46.1432 143.561 41.0981 143.561 34.2513C143.621 27.4045 138.516 22.3594 131.97 22.3594V22.3594ZM131.009 40.6777C128.787 40.6777 127.045 39.5366 126.144 38.2153V30.1672C127.045 28.966 128.967 27.7048 131.009 27.7048C134.853 27.7048 137.796 30.1072 137.796 34.1912C137.796 38.2753 134.853 40.6777 131.009 40.6777V40.6777ZM115.393 22.3594C117.135 22.3594 118.036 22.6597 118.036 22.6597V28.0051C118.036 28.0051 113.231 26.3834 110.228 29.8069V45.6027H104.463V22.96H109.327C109.808 22.96 110.168 23.3804 110.168 23.8009V24.7618C111.249 23.5006 113.592 22.3594 115.393 22.3594V22.3594ZM55.5142 43.5006C55.2139 42.7798 54.9136 41.9991 54.6133 41.3384C54.1329 40.2573 53.6524 39.2363 53.232 38.2753L53.1719 38.2153C49.0278 29.2063 44.5834 20.0771 39.8988 11.0681L39.7186 10.7078C39.2381 9.80686 38.7577 8.8459 38.2772 7.88494C37.6766 6.80386 37.076 5.66271 36.1151 4.58163C34.1932 2.17923 31.4304 0.85791 28.4875 0.85791C25.4846 0.85791 22.7819 2.17923 20.7999 4.46151C19.899 5.54259 19.2384 6.68374 18.6378 7.76482C18.1573 8.72578 17.6768 9.68674 17.1964 10.5876L17.0162 10.948C12.3916 19.957 7.88718 29.0861 3.74308 38.0951L3.68302 38.2153C3.26261 39.1762 2.78213 40.1973 2.30166 41.2783C2.00136 41.939 1.70106 42.6597 1.40077 43.4405C0.619996 45.6627 0.379759 47.7648 0.680055 49.927C1.34071 54.4315 4.34367 58.2153 8.48777 59.897C10.0493 60.5576 11.6709 60.8579 13.3526 60.8579C13.833 60.8579 14.4336 60.7978 14.9141 60.7378C16.8961 60.4975 18.9381 59.8369 20.9201 58.6957C23.3825 57.3144 25.7248 55.3324 28.3674 52.4495C31.01 55.3324 33.4124 57.3144 35.8148 58.6957C37.7967 59.8369 39.8387 60.4975 41.8207 60.7378C42.3012 60.7978 42.9018 60.8579 43.3822 60.8579C45.0639 60.8579 46.7456 60.5576 48.2471 59.897C52.4512 58.2153 55.3941 54.3714 56.0548 49.927C56.5352 47.8249 56.295 45.7228 55.5142 43.5006ZM28.4275 46.6237C25.1843 42.5396 23.0822 38.6957 22.3615 35.4525C22.0612 34.0711 22.0011 32.8699 22.1813 31.7888C22.3014 30.8279 22.6618 29.987 23.1422 29.2663C24.2834 27.6447 26.2053 26.6237 28.4275 26.6237C30.6497 26.6237 32.6316 27.5846 33.7127 29.2663C34.1932 29.987 34.5535 30.8279 34.6736 31.7888C34.8538 32.8699 34.7938 34.1312 34.4935 35.4525C33.7728 38.6357 31.6707 42.4795 28.4275 46.6237V46.6237ZM52.3911 49.4465C51.9707 52.5696 49.8687 55.2723 46.9257 56.4735C45.4843 57.0741 43.9228 57.2543 42.3612 57.0741C40.8598 56.8939 39.3583 56.4135 37.7967 55.5126C35.6346 54.3114 33.4725 52.4495 30.95 49.6867C34.9139 44.8219 37.3163 40.3774 38.2171 36.4135C38.6376 34.5516 38.6976 32.8699 38.5174 31.3084C38.2772 29.8069 37.7367 28.4255 36.8958 27.2243C35.034 24.5216 31.9109 22.96 28.4275 22.96C24.944 22.96 21.8209 24.5816 19.9591 27.2243C19.1183 28.4255 18.5777 29.8069 18.3375 31.3084C18.0973 32.8699 18.1573 34.6117 18.6378 36.4135C19.5387 40.3774 22.0011 44.8819 25.905 49.7468C23.4425 52.5096 21.2203 54.3714 19.0582 55.5726C17.4967 56.4735 15.9952 56.954 14.4937 57.1342C12.8721 57.3144 11.3106 57.0741 9.92919 56.5336C6.98629 55.3324 4.88421 52.6297 4.46379 49.5066C4.28362 48.0051 4.40373 46.5036 5.00433 44.8219C5.18451 44.2213 5.4848 43.6207 5.7851 42.9C6.20551 41.939 6.68599 40.918 7.16646 39.8969L7.22652 39.7768C11.3706 30.8279 15.815 21.6988 20.4396 12.8099L20.6198 12.4495C21.1002 11.5486 21.5807 10.5876 22.0612 9.68674C22.5417 8.72578 23.0822 7.82488 23.7428 7.0441C25.0041 5.60265 26.6857 4.82187 28.5476 4.82187C30.4094 4.82187 32.0911 5.60265 33.3523 7.0441C34.013 7.82488 34.5535 8.72578 35.034 9.68674C35.5145 10.5876 35.9949 11.5486 36.4754 12.4495L36.6556 12.8099C41.2201 21.7588 45.6645 30.8879 49.8086 39.8369V39.8969C50.2891 40.8579 50.7095 41.939 51.19 42.9C51.4903 43.6207 51.7906 44.2213 51.9707 44.8219C52.4512 46.3834 52.6314 47.8849 52.3911 49.4465V49.4465Z" fill="white"/>
</svg>
