<svg width="190" height="43" viewBox="0 0 190 43" fill="none" xmlns="http://www.w3.org/2000/svg">
<path fill-rule="evenodd" clip-rule="evenodd" d="M14.7752 36.9284C16.2399 36.9284 17.6102 36.6607 18.9017 36.1409C18.9017 36.1882 21.5319 40.2675 21.5792 40.2832C19.2512 41.5304 16.6442 42.1646 14.0034 42.126C5.9237 42.1417 0.0646973 36.8024 0.0646973 28.3131C0.0646973 19.7607 6.2072 14.4529 14.0034 14.4529C16.7597 14.4529 18.9489 15.0514 21.1382 16.2169L18.6182 20.4695C17.2952 19.9497 15.9407 19.7135 14.5232 19.7135C9.75095 19.7135 6.0497 22.7532 6.0497 28.3131C6.0497 33.5736 9.62495 36.9284 14.7752 36.9284ZM35.1399 14.4529C43.0779 14.4529 48.8267 20.0757 48.8267 28.3131C48.8267 36.5032 43.0779 42.126 35.1242 42.126C27.2492 42.126 21.5004 36.5032 21.5004 28.3131C21.5004 20.0757 27.2492 14.4529 35.1399 14.4529V14.4529ZM35.1399 19.5245C30.7142 19.5245 27.4854 22.9422 27.4854 28.3131C27.4854 33.6366 30.7142 37.0544 35.1399 37.0544C39.6759 37.0544 42.8574 33.6366 42.8574 28.3131C42.8574 22.9422 39.6759 19.5245 35.1399 19.5245V19.5245ZM52.5909 41.5275V15.0514H58.5129V41.5117H52.5909V41.5275ZM51.8034 6.90855C51.8649 5.96659 52.2824 5.08328 52.9712 4.43787C53.66 3.79247 54.5686 3.43333 55.5126 3.43333C56.4565 3.43333 57.3651 3.79247 58.054 4.43787C58.7428 5.08328 59.1603 5.96659 59.2217 6.90855C59.2219 7.89758 58.8345 8.84731 58.1425 9.55398C57.4506 10.2607 56.5093 10.668 55.5204 10.6886C54.5316 10.668 53.5903 10.2607 52.8983 9.55398C52.2064 8.84731 51.819 7.89758 51.8192 6.90855H51.8034ZM63.6789 16.7209C67.5581 15.2629 71.6626 14.4953 75.8064 14.4529C82.579 14.4529 86.863 17.0202 86.863 24.4858V41.5275H81.0197V25.037C81.0197 21.2097 78.6414 19.8395 75.3497 19.8395C73.2549 19.8395 71.1602 20.123 69.601 20.6112V41.5117H63.6947V16.7209H63.6789ZM91.8242 0.876221H97.7462V15.7602C99.0062 15.0986 101.447 14.4529 103.778 14.4529C111.433 14.4529 117.166 19.3355 117.166 27.8406C117.166 36.3929 111.496 42.126 101.699 42.126C97.8722 42.126 94.5174 41.3385 91.8242 40.3935V0.876221V0.876221ZM97.7462 36.5032C98.8802 36.8654 100.376 37.0544 101.873 37.0544C107.306 37.0544 111.197 34.0619 111.197 27.9666C111.197 22.8162 107.543 19.7765 103.07 19.7765C100.739 19.7765 98.9432 20.375 97.7462 21.0365V36.5032ZM134.286 23.777C134.286 20.9105 132.113 19.5875 129.183 19.5875C126.143 19.5875 123.749 20.4852 121.544 21.7452V16.5949C124.182 15.1614 127.142 14.4242 130.144 14.4529C135.94 14.4529 140.066 16.8469 140.066 23.4778V40.992C137.546 41.6535 133.971 42.063 130.979 42.063C124.112 42.063 119.087 39.984 119.087 33.9989C119.087 28.6123 123.686 25.982 131.341 25.982H134.27V23.777H134.286ZM134.286 29.9196H131.766C127.64 29.9196 124.946 31.1323 124.946 33.8256C124.946 36.5662 127.466 37.6372 131.042 37.6372C131.939 37.6372 133.199 37.5269 134.27 37.3537V29.9353L134.286 29.9196ZM144.366 34.3611C146.674 36.1898 149.504 37.2377 152.446 37.3537C155.076 37.3537 156.809 36.4559 156.809 34.3611C156.809 32.2034 155.249 31.4316 151.847 30.5338C146.335 29.2738 144.02 27.0688 144.02 22.454C144.02 17.0832 148.083 14.4529 153.47 14.4529C156.462 14.4529 158.84 15.0986 161.061 16.4847V21.9185C158.951 20.2339 156.343 19.2927 153.643 19.2409C151.076 19.2409 149.705 20.501 149.705 22.2335C149.705 23.966 150.824 24.848 153.879 25.6985C159.927 27.0058 162.542 29.2738 162.542 34.0461C162.542 39.6217 158.305 42.126 152.572 42.126C149.696 42.1834 146.861 41.4419 144.382 39.984V34.3611H144.366ZM170.653 29.6361V29.7463C171.015 34.4714 175.063 37.0544 179.205 37.0544C182.843 37.0544 185.474 36.2039 188.104 34.4714V39.669C185.71 41.3542 182.182 42.126 178.78 42.126C170.527 42.126 164.92 36.8654 164.92 28.5021C164.92 20.0757 170.417 14.4529 177.709 14.4529C185.426 14.4529 189.065 19.4142 189.065 26.6435V29.6361H170.637H170.653ZM183.505 25.8088C183.379 21.6822 181.347 19.4142 177.52 19.4142C174.118 19.4142 171.614 21.8082 170.826 25.8088H183.505Z" fill="white"/>
</svg>
